<svg width="1920" height="558" viewBox="0 0 1920 558" fill="none" xmlns="http://www.w3.org/2000/svg">
<path d="M0 215.429L53.3333 161.571C106.667 107.714 213.333 0 320 0C426.667 0 533.333 107.714 640 143.731C746.667 178.402 853.333 144.741 960 125.554C1066.67 107.714 1173.33 107.714 1280 215.429C1386.67 323.143 1493.33 538.571 1600 538.571C1706.67 538.571 1813.33 323.143 1866.67 215.429L1920 107.714V754H1866.67C1813.33 754 1706.67 754 1600 754C1493.33 754 1386.67 754 1280 754C1173.33 754 1066.67 754 960 754C853.333 754 746.667 754 640 754C533.333 754 426.667 754 320 754C213.333 754 106.667 754 53.3333 754H0V215.429Z" fill="#57D7CA"/>
</svg>
