<svg width="219" height="219" viewBox="0 0 219 219" fill="none" xmlns="http://www.w3.org/2000/svg">
<path d="M141.865 70.5275C139.405 71.1505 135.11 73.3147 133.339 74.8231C131.896 76.0364 128.65 79.5122 129.896 78.4957C130.257 78.2006 131.372 77.3152 132.355 76.5282C134.749 74.5936 139.504 72.167 142.52 71.3473C145.308 70.5603 149.669 70.4291 152.423 71.0521L154.161 71.4128L151.833 71.8063C148.816 72.331 147.472 72.7901 144.652 74.2001C141.438 75.8068 138.028 78.1678 136.29 80.0369C134.716 81.7092 134.749 81.6764 138.913 79.0203C141.274 77.4792 145.701 75.3806 145.996 75.6757C146.062 75.7412 145.275 76.2003 144.226 76.6594C139.307 78.8892 132.978 84.2013 131.404 87.4804C130.388 89.579 129.765 92.9565 129.699 96.5635L129.634 99.6786L129.306 97.4161C128.945 94.7928 129.601 90.6939 130.88 87.7099C131.306 86.7262 131.962 84.8571 132.355 83.6111C133.142 81.0206 134.618 78.4301 136.848 75.7412L138.323 73.905L137.143 74.3968C135.044 75.2822 132.257 77.3152 129.83 79.7417C128.519 81.0534 127.437 82.0699 127.437 82.0043C127.437 81.9387 127.83 81.0534 128.289 80.0369C128.748 79.0203 129.076 78.0038 129.011 77.8071C128.781 77.1185 126.519 81.2173 125.01 85.1195C123.731 88.3002 123.502 88.6937 123.469 87.7099C123.469 87.0869 123.338 86.2016 123.207 85.7425C123.01 85.0539 122.912 85.2506 122.584 86.8574C122.092 89.3495 122.092 91.8744 122.649 94.6944L123.075 96.9242L121.665 95.547L120.288 94.1698L120.78 96.17C121.042 97.2521 121.829 99.2851 122.485 100.63C123.567 102.859 123.6 103.056 122.944 102.63C121.862 101.908 121.764 102.007 122.42 103.154C123.469 104.991 126.879 107.844 129.535 109.155C130.912 109.844 131.995 110.467 131.896 110.565C131.831 110.631 131.306 110.5 130.781 110.205C127.929 108.729 122.682 107.253 117.271 106.401C115.927 106.171 114.222 105.745 113.501 105.417C111.631 104.597 103.63 97.8423 100.417 94.3665L98.843 92.6286L99.3676 91.3169C100.089 89.4807 100.023 86.4311 99.2037 84.1685C98.843 83.152 98.2855 81.5452 98.0232 80.6599C97.0722 77.5775 97.1706 77.6431 96.2853 79.2827C95.859 80.1024 95.3671 80.6927 95.236 80.6271C95.1048 80.5287 94.9736 79.6762 94.9736 78.758C94.9736 77.512 95.2687 76.4627 96.0557 74.8887C97.105 72.7245 97.105 72.6917 96.3181 72.9868C95.2032 73.4131 91.2683 76.102 89.5959 77.5775C88.7761 78.2989 87.7924 79.6762 87.235 80.7911C86.7103 81.9059 86.2184 82.7913 86.1201 82.7913C85.7922 82.7913 84.3494 78.3317 84.4149 77.512C84.4477 77.0201 84.7101 76.0692 85.0052 75.4133C85.2675 74.7575 85.4315 74.1017 85.3331 74.0033C85.2019 73.905 84.1526 74.4952 82.9066 75.3478C79.1028 77.971 77.2665 81.0862 76.6107 86.1032C76.4468 87.6116 76.1844 88.9232 76.0533 89.0216C75.8893 89.1527 74.676 89.6446 73.3316 90.1693C67.1997 92.4646 62.1171 95.9405 58.4773 100.302C57.592 101.417 56.7394 102.302 56.641 102.302C56.5427 102.302 56.3131 101.646 56.0836 100.826C55.854 100.007 55.6901 99.5803 55.6573 99.8426C55.6573 100.105 55.7885 100.892 55.9852 101.581C56.1492 102.269 56.2147 103.122 56.1164 103.482C55.9196 104.073 55.7885 104.007 54.3785 102.761C53.5259 102.04 52.5422 101.285 52.1815 101.089C51.8208 100.925 51.9847 101.121 52.5094 101.548C53.0668 101.941 53.9522 102.728 54.5424 103.318L55.5917 104.335L54.8047 106.466C54.3785 107.68 53.7882 109.909 53.5259 111.483C53.0668 114.008 52.0503 116.796 51.0666 118.206C50.7715 118.599 50.378 118.337 48.7056 116.566L46.7054 114.435L48.5417 116.664C50.5091 119.058 50.5419 119.091 50.0828 119.812C49.8533 120.206 49.427 120.107 47.6235 119.386C44.6068 118.173 44.1149 118.337 47.0333 119.583C49.3942 120.566 49.4598 120.632 49.2631 121.583C49.1647 122.108 49.0663 123.059 49.0663 123.649C49.0663 124.665 49.0007 124.764 48.017 124.796C47.4268 124.829 46.5086 124.96 45.9512 125.124C45.2954 125.288 45.6233 125.321 47.0005 125.223C48.804 125.059 49.0663 125.092 49.3942 125.715C49.7221 126.403 49.6894 126.403 46.3775 126.469L43 126.534L46.2463 126.633C49.1975 126.731 50.378 127.059 50.378 127.682C50.378 127.813 49.5582 128.272 48.5745 128.666C47.5907 129.092 46.7054 129.551 46.607 129.715C46.5086 129.846 46.9349 129.781 47.5579 129.518C49.427 128.731 49.591 128.961 48.2465 130.404L46.9349 131.814L48.3121 130.535C49.0663 129.813 49.591 129.092 49.4926 128.928C49.3614 128.731 49.4926 128.666 49.8205 128.797C50.1156 128.895 50.4435 128.863 50.5419 128.666C50.6731 128.502 50.9026 128.436 51.0666 128.567C51.2305 128.666 51.2633 128.895 51.1649 129.092C51.0338 129.289 51.0994 129.354 51.2633 129.256C51.4601 129.125 51.9519 129.322 52.3782 129.65C52.8045 129.977 54.444 130.896 56.0508 131.683L58.9036 133.125L58.7724 135.585L58.6085 138.044L59.002 135.519C59.461 132.47 60.1169 132.437 60.3136 135.421L60.412 137.388L60.4776 135.322C60.5104 134.175 60.6743 133.322 60.8383 133.421C60.9694 133.519 62.5434 133.683 64.2813 133.748C67.1997 133.912 67.5604 133.978 68.8393 134.962L70.2165 135.978L69.1672 134.962C68.5769 134.404 68.0851 133.88 68.0851 133.814C68.0851 133.716 68.6753 133.453 69.3967 133.257C70.61 132.896 70.8395 132.929 71.7904 133.584L72.8397 134.306L71.9544 133.486C70.8723 132.502 71.2986 132.043 72.5774 132.863L73.4956 133.421L72.9053 132.732C72.2167 131.945 72.2167 131.945 74.5449 131.486C75.463 131.289 75.5942 131.355 75.7581 132.207C76.0533 133.584 75.9221 135.585 75.3974 137.028C75.1679 137.716 74.9712 138.634 74.9712 139.093C74.9712 139.749 74.5777 140.044 72.5774 140.962C68.6425 142.733 66.7734 144.865 66.7734 147.521C66.7734 149.16 67.5604 150.931 68.4786 151.292C68.9048 151.456 69.4951 151.882 69.8558 152.243C70.7739 153.292 72.5118 153.718 74.8072 153.489C76.4795 153.325 76.9386 153.39 77.2993 153.816C78.5454 155.325 82.0868 154.964 85.4643 152.997L87.7924 151.685L87.5629 156.21C87.3661 160.276 87.3989 160.965 88.0219 163.031C88.7761 165.49 90.5141 168.31 92.6783 170.605C93.3997 171.392 93.9899 172.048 93.9899 172.114C93.9899 172.343 89.3008 172.638 85.2019 172.671C80.5128 172.704 79.3651 172.901 77.7584 173.983C76.2828 174.999 74.3153 177.787 74.3153 178.869C74.3153 180.475 74.7416 180.574 81.6605 180.443C87.2678 180.344 88.0875 180.41 88.0875 180.836C88.0875 182.509 90.6452 183.558 93.1045 182.869C93.8915 182.64 94.3506 182.64 94.6129 182.902C94.8425 183.132 97.0067 183.033 101.761 182.509C105.5 182.115 109.205 181.754 109.926 181.689L111.304 181.59L111.14 182.771C110.91 184.902 111.008 184.935 117.501 184.935C121.6 184.935 125.797 184.64 131.536 184.017C140.947 183 142.291 182.738 143.734 181.623C144.652 180.935 145.177 180.836 148.488 180.672C150.521 180.607 152.718 180.41 153.341 180.246L154.489 179.951L152.915 179.229C152.03 178.803 151.243 178.574 151.144 178.672C151.013 178.77 150.784 178.738 150.587 178.574C150.39 178.41 149.603 178.115 148.816 177.885C147.669 177.59 147.308 177.295 146.914 176.409C146.652 175.786 146.455 175.163 146.455 175.032C146.455 174.901 147.603 174.212 149.013 173.557C150.39 172.901 152.259 171.72 153.145 170.933C154.686 169.622 159.014 164.441 158.785 164.211C158.752 164.146 158.195 164.31 157.572 164.572C154.948 165.654 154.751 165.556 156.358 164.146C158.588 162.178 160.326 159.358 161.375 156.046C161.9 154.439 162.687 152.472 163.146 151.685C163.605 150.865 163.802 150.341 163.572 150.472C162.982 150.832 161.047 153.751 161.146 154.112C161.211 154.276 161.146 154.341 161.015 154.21C160.883 154.079 160.588 154.112 160.326 154.341C159.441 155.063 159.572 154.341 160.555 153.128C161.474 151.98 161.67 151.652 161.441 151.652C161.408 151.652 159.801 153.226 157.932 155.128L154.489 158.637L156.391 157.555C157.44 156.964 158.359 156.571 158.424 156.636C158.522 156.702 157.834 157.686 156.916 158.833C155.637 160.375 155.145 160.768 154.817 160.506C154.522 160.243 154.358 160.276 154.194 160.67C154.096 160.932 153.801 161.162 153.505 161.162C153.243 161.162 153.014 161.293 153.014 161.49C153.014 161.653 152.784 161.817 152.522 161.817C152.259 161.817 152.03 161.949 152.03 162.145C152.03 162.309 151.899 162.473 151.702 162.473C151.538 162.473 151.833 161.26 152.391 159.784C155.44 151.587 156.096 147.783 156.096 138.208C156.096 129.19 155.604 126.633 153.014 122.108C150.456 117.648 147.57 111.68 146.816 109.221C144.521 101.744 146.685 94.8912 152.161 92.4646C153.997 91.6449 158.49 90.989 158.129 91.6121C157.998 91.8088 157.703 91.9728 157.44 91.9728C156.719 91.9728 153.702 94.5305 152.85 95.9077C152.391 96.6291 152.03 97.2521 152.03 97.3177C152.03 97.3833 152.718 96.7602 153.604 95.9077C155.702 93.8746 158.359 93.1532 160.883 93.9402C161.802 94.2025 161.9 94.1042 159.408 95.0223C157.703 95.6126 157.867 95.7765 160.162 95.7765C164.064 95.7765 167.507 97.9407 170.36 102.138C172.032 104.63 173.442 107.253 174.164 109.188C174.492 110.073 174.885 110.959 175.016 111.123C175.41 111.582 176.59 107.253 176.951 103.974C177.738 97.0226 175.541 88.4641 171.901 84.2341C170.917 83.0864 168.753 81.5125 168.753 81.9387C168.753 82.0043 169.442 82.8569 170.262 83.8406C171.836 85.6769 173.77 89.1199 173.442 89.4807C173.311 89.579 173.377 89.6774 173.541 89.6774C173.967 89.6774 174.754 91.8744 174.492 92.3007C174.393 92.4646 174.459 92.6286 174.656 92.6286C174.885 92.6286 174.984 92.8581 174.852 93.1204C174.754 93.3828 174.82 93.6123 175.016 93.6123C175.213 93.6123 175.279 93.9074 175.147 94.2681C175.016 94.6288 175.082 94.924 175.279 94.924C175.475 94.924 175.639 95.1207 175.639 95.383C175.639 95.8749 174.426 96.4323 174.098 96.1044C173.967 96.0061 174.131 95.9077 174.426 95.9077C175.016 95.9077 175.147 95.3502 174.721 94.7272C174.59 94.5632 174.164 94.3993 173.803 94.3993C173.18 94.3993 173.114 94.5305 173.377 95.1535C173.639 95.8421 173.541 96.0388 172.95 95.9405C172.787 95.9405 172.688 96.0716 172.688 96.2356C172.688 96.4323 173.016 96.5635 173.442 96.5635C174.098 96.5963 174.098 96.6291 173.606 96.9242C173.278 97.0882 173.016 97.5144 172.983 97.8095C172.983 98.1047 172.655 97.4816 172.229 96.3668C171.508 94.4321 169.311 90.1693 168.72 89.5462C168.556 89.3823 168.097 89.2183 167.704 89.1855L167.015 89.1199L167.737 89.743C168.163 90.0709 168.393 90.3332 168.261 90.3332C168.13 90.3332 168.393 90.8251 168.819 91.3825C169.704 92.563 171.803 96.5635 171.639 96.7274C171.573 96.793 171.081 96.0061 170.557 94.9895C169.016 92.0383 165.441 88.6281 162.326 87.1525C159.867 85.972 159.572 85.9064 156.457 85.9064C153.637 85.9064 152.948 86.0048 151.571 86.6934C147.767 88.5625 144.226 93.6779 143.045 99.0228C142.586 101.089 142.553 101.154 142.684 99.6131C143.176 94.8584 146.193 89.743 150.554 86.2999C152.391 84.8243 151.899 84.8571 148.488 86.3983C144.554 88.2018 141.307 92.3335 140.061 97.0882C139.045 100.99 139.537 106.27 141.406 111.451C141.832 112.697 142.127 113.779 142.029 113.877C141.57 114.369 137.602 109.483 136.52 107.057C136.159 106.237 135.667 104.827 135.438 103.941L135.011 102.302L135.077 105.351C135.143 108.729 134.979 108.762 133.47 105.581C131.503 101.384 131.142 95.7765 132.65 91.94C133.929 88.5953 136.913 84.2013 139.045 82.4634L140.061 81.6436L139.504 82.4962C139.209 82.9553 138.815 83.8734 138.651 84.5292L138.323 85.7097L140.061 83.8406C142.52 81.1845 146.062 79.1843 151.866 77.1841C157.047 75.3806 158.785 75.151 161.146 75.938C163.113 76.561 165.868 78.0694 167.802 79.5122L169.573 80.8566L167.671 79.0859C164.392 76.0036 160.26 74.2657 156.162 74.2657C154.424 74.2657 154.227 74.2001 154.653 73.7738C154.915 73.5115 155.735 73.0852 156.457 72.8557C157.67 72.4294 157.703 72.3638 157.08 72.0359C156.686 71.8391 155.079 71.2817 153.505 70.8226C150.161 69.8717 144.914 69.7077 141.865 70.5275ZM94.4818 76.7578C94.0883 77.7087 93.8915 77.9055 93.662 77.5448C93.4652 77.2496 93.5964 76.7906 94.0555 76.1347C94.9408 74.9215 95.1376 75.1838 94.4818 76.7578ZM83.4312 77.512C83.1689 78.5613 83.2345 78.9876 83.7591 80.0369C84.3822 81.2829 85.4643 84.5292 85.4643 85.2178C85.4643 85.4146 85.038 86.1032 84.4805 86.7262C83.7919 87.5132 83.5624 87.6772 83.6935 87.1853C83.7919 86.8246 83.6608 86.3655 83.4312 86.1688C82.9394 85.7425 83.0377 82.6601 83.5296 82.988C83.6935 83.0864 83.8247 82.988 83.8247 82.8241C83.8247 82.6273 83.6608 82.4634 83.464 82.4634C83.3001 82.4634 83.2017 82.3322 83.3001 82.1683C83.3984 82.0043 83.1689 81.8076 82.8082 81.7092C82.1524 81.5452 82.1196 81.6108 82.3163 83.2176C82.5131 84.8571 82.5787 87.7755 82.3819 87.9395C82.3491 88.0051 81.2342 88.2346 79.9554 88.4641C77.6272 88.9232 77.5944 88.9232 77.5944 88.2346C77.5944 86.6934 78.3158 83.1848 78.9389 81.8404C79.857 79.7745 81.2342 78.0366 81.5293 78.5285C81.7261 78.8236 81.89 78.7252 82.1852 78.1678C82.5787 77.4464 83.4968 76.2331 83.6608 76.2331C83.7263 76.2331 83.5952 76.7906 83.4312 77.512ZM93.2685 77.7743C93.4325 78.1022 93.7276 79.0859 93.9571 80.0041C94.8097 83.6111 95.3999 84.2013 96.1541 82.1027C96.5148 81.0862 96.5804 81.0534 96.6132 81.8076C96.646 82.2666 96.7443 82.4306 96.8427 82.1683C97.1378 81.4797 98.6134 85.2834 98.8102 87.1853C99.0069 89.2183 98.5478 91.1202 97.4329 92.7925C96.5804 94.0058 96.5804 94.0386 96.9739 97.2521C97.1706 99.0228 97.269 101.154 97.2034 101.974C97.105 103.22 97.1706 103.384 97.4985 102.925C98.1216 102.04 98.3183 100.466 98.2199 97.2521C98.1544 95.6126 98.1871 94.3993 98.2855 94.5305C99.0069 95.3502 103.762 102.007 105.86 105.155C108.975 109.745 111.304 112.369 113.96 114.205C115.042 114.992 115.96 115.549 115.96 115.451C115.96 115.353 114.55 113.68 112.812 111.746C111.074 109.778 109.172 107.614 108.615 106.893C108.024 106.171 106.713 104.532 105.696 103.253C104.68 101.974 103.827 100.794 103.827 100.662C103.827 100.531 103.565 100.203 103.27 99.941C102.745 99.5147 102.745 99.5147 103.368 99.8098C103.762 100.007 104.778 100.925 105.663 101.876C106.516 102.827 107.106 103.384 106.942 103.122C106.811 102.859 107.106 103.023 107.631 103.482C109.139 104.86 112.517 106.925 114.32 107.581C115.206 107.909 115.96 108.27 115.96 108.434C115.96 108.565 116.222 108.598 116.55 108.467C117.042 108.303 117.009 108.335 116.484 108.762C115.861 109.254 115.927 109.385 117.075 109.811C117.567 109.975 117.632 109.877 117.501 109.352C117.403 108.991 117.468 108.696 117.632 108.696C117.796 108.696 117.927 108.827 117.927 108.958C117.927 109.09 118.419 109.221 119.042 109.254C119.665 109.286 120.387 109.418 120.616 109.549C120.846 109.713 121.206 109.844 121.37 109.844C122.42 109.909 125.469 110.828 125.469 111.057C125.469 111.221 125.6 111.287 125.764 111.188C126.158 110.926 127.961 111.647 129.863 112.795C134.519 115.648 138.29 118.304 139.864 119.878C140.815 120.829 141.471 121.288 141.274 120.927C140.75 119.976 137.799 117.386 135.405 115.746C134.257 114.992 133.437 114.271 133.601 114.107C133.733 113.943 133.667 113.943 133.47 114.041C133.273 114.139 132.552 113.877 131.831 113.451C130.257 112.467 130.486 112.434 132.88 113.32C134.06 113.779 134.585 114.107 134.323 114.271C134.028 114.467 134.126 114.631 134.651 114.926C135.175 115.189 135.47 115.222 135.602 114.959C136.126 114.139 143.078 119.878 145.472 123.157C149.013 127.879 151.669 134.175 152.522 139.684C153.046 143.127 153.145 147.783 152.718 149.193C152.522 149.882 152.423 148.701 152.423 145.422C152.423 140.405 151.636 135.322 151.013 136.273C150.817 136.568 150.784 136.404 150.915 135.781C151.079 135.126 151.046 134.896 150.784 135.06C150.554 135.191 150.456 135.126 150.554 134.831C150.653 134.601 150.423 133.748 150.062 132.929C149.308 131.322 149.308 131.125 150.39 136.864C151.144 140.766 151.177 141.487 150.587 139.848C150.325 139.224 150.226 138.601 150.292 138.438C150.358 138.306 150.226 138.208 149.964 138.208C149.472 138.208 148.915 136.798 149.046 135.945C149.111 135.683 148.98 135.617 148.685 135.781C148.357 135.978 148.324 135.945 148.652 135.552C149.144 134.962 148.849 133.617 148.259 133.814C148.029 133.912 147.669 133.552 147.439 132.994C147.21 132.437 146.914 131.978 146.751 131.978C146.587 131.978 146.685 132.437 146.98 133.027C149.374 137.618 150.685 146.537 150.03 153.521C149.538 158.801 148.423 162.965 146.39 167.031L144.685 170.441L144.488 174.803C144.324 178.803 144.258 179.229 143.537 179.984C142.389 181.197 141.438 181.426 133.667 182.148C129.798 182.509 125.404 182.968 123.895 183.132C121.141 183.492 119.895 183.263 119.895 182.377C119.895 181.426 121.305 179.787 122.616 179.197C123.961 178.574 123.961 178.541 123.01 178.541C121.731 178.541 120.518 179.361 119.042 181.262C117.239 183.558 115.96 183.722 115.96 181.623C115.96 180.803 116.255 180.18 117.14 179.197C118.288 177.918 118.386 177.885 120.518 177.852C121.698 177.819 123.502 177.721 124.485 177.557C125.961 177.36 125.6 177.328 122.256 177.262C117.829 177.229 116.976 177.459 115.566 179.131C115.14 179.656 114.583 180.541 114.353 181.131C113.894 182.213 113.009 182.509 113.009 181.558C113.009 180.705 114.255 178.836 114.747 178.934C115.009 179 115.534 178.639 115.993 178.147C116.517 177.557 117.435 177.065 118.681 176.77C122.059 175.885 132.355 176.868 135.143 178.278C135.602 178.508 135.7 178.508 135.47 178.278C134.847 177.623 131.208 175.983 129.24 175.458C127.765 175.098 127.01 174.671 126.256 173.819C125.043 172.409 123.666 169.622 123.043 167.326L122.551 165.588L122.518 168.048C122.452 170.179 122.42 170.343 122.157 169.359C121.6 167.097 121.436 161.981 121.862 159.653C122.387 156.833 123.895 152.603 125.01 150.832L125.83 149.521L124.846 150.669C123.436 152.243 121.993 155.358 121.338 158.079C120.518 161.621 120.813 168.769 121.895 171.884C122.354 173.163 122.616 174.18 122.485 174.081C121.928 173.753 120.813 169.458 120.419 166.179L119.96 162.637V165.588C119.928 167.195 120.124 169.491 120.387 170.671C120.616 171.851 120.78 172.835 120.715 172.901C120.452 173.196 119.6 170.966 119.239 169.031C118.55 165.228 118.485 165.097 118.255 166.9L118.091 168.54L117.665 167.162C116.583 163.621 116.878 158.67 118.452 154.013C119.239 151.587 121.108 148.176 121.436 148.504C121.534 148.603 122.584 147.849 123.797 146.832C126.322 144.701 126.453 144.569 125.797 144.93C125.043 145.324 122.42 147.488 121.961 148.045C121.698 148.34 121.567 148.373 121.534 148.144C121.534 147.619 124.387 145.16 125.928 144.373C127.797 143.422 131.568 142.7 133.569 142.963C134.519 143.061 135.962 143.52 136.815 143.946L138.323 144.701L137.405 143.717C135.634 141.881 134.159 141.323 130.88 141.323C128.158 141.323 127.732 141.421 125.338 142.569C121.665 144.307 118.452 147.586 117.009 151.062C115.894 153.685 114.976 157.489 114.976 159.358C114.976 160.178 114.845 160.407 114.419 160.375C113.96 160.342 113.796 160.67 113.664 161.653C113.402 163.752 113.927 167.621 114.779 169.786C115.927 172.704 115.927 172.704 115.074 173.557L114.32 174.311L112.615 173.393C108.451 171.163 96.9083 158.276 97.7936 156.866C97.9248 156.604 97.892 156.538 97.6625 156.702C97.3018 156.899 97.2034 156.702 97.3018 156.046C97.3018 155.915 97.1706 155.718 97.0067 155.62C96.8427 155.522 96.4492 154.964 96.1541 154.374L95.6294 153.325L96.6788 153.751C97.5641 154.112 98.056 154.767 99.4988 157.587C101.827 162.145 102.286 162.506 100.286 158.21C99.4004 156.309 98.7118 154.735 98.7446 154.669C98.8102 154.603 99.1709 154.702 99.5316 154.899C100.614 155.489 105.106 155.718 107.172 155.292C111.336 154.407 116.025 150.964 118.747 146.734C121.338 142.733 123.797 140.405 127.929 138.142C129.634 137.191 129.47 136.831 127.765 137.716C127.207 138.011 126.781 138.175 126.781 138.077C126.781 137.814 129.142 136.47 130.355 136.044C131.372 135.683 131.404 135.617 130.716 135.585C129.798 135.585 125.994 137.29 125.666 137.847C125.24 138.503 124.813 138.208 124.813 137.29C124.813 135.913 123.895 133.027 122.78 130.928C121.534 128.6 118.091 125.059 115.304 123.288C112.287 121.353 111.566 121.222 113.337 122.862C116.911 126.239 119.206 129.617 120.583 133.486C121.37 135.683 121.567 140.241 120.944 141.323C120.616 141.881 120.583 141.782 120.551 140.536C120.551 137.88 118.452 131.847 116.812 129.846C116.484 129.453 116.616 129.912 117.108 130.994C118.518 134.142 119.009 136.7 118.845 140.208C118.747 142.995 118.616 143.618 117.599 145.553C116.189 148.373 115.796 148.603 116.845 146.012C118.78 141.258 118.518 135.224 116.124 129.813C115.697 128.83 115.501 128.108 115.73 128.207C115.96 128.338 115.861 128.207 115.566 127.944C115.238 127.682 114.976 127.321 114.976 127.157C114.976 126.83 110.615 122.468 110.287 122.468C110.189 122.468 110.451 123.157 110.844 124.01C113.14 128.797 114.648 133.978 114.648 137.06C114.648 142.766 111.008 147.029 105.237 148.078C103.532 148.406 100.646 148.242 95.7934 147.521L94.4818 147.357L95.3015 148.078C96.5148 149.127 99.7939 150.603 101.958 151.029C106.614 151.98 113.501 149.095 115.96 145.192C117.075 143.455 117.239 143.553 116.321 145.389C115.337 147.291 113.402 148.931 110.418 150.439L107.664 151.816H103.86C100.089 151.816 100.023 151.816 96.7771 150.373C94.8425 149.521 92.8094 148.865 91.8257 148.767C90.2845 148.635 90.0222 148.734 88.5794 149.849C86.4808 151.456 83.3984 152.964 82.2835 152.964C81.7589 152.964 81.0375 152.734 80.644 152.472C79.9882 152.013 79.9226 152.013 79.8242 152.702C79.7258 153.325 79.6931 153.357 79.4963 152.898C79.0372 151.751 81.3326 149.095 84.8084 146.668C85.6282 146.111 85.6282 146.111 84.4805 146.471C83.8575 146.668 82.7754 147.193 82.1196 147.619C81.1031 148.242 80.9391 148.275 81.1031 147.783C81.2998 147.291 81.267 147.291 80.7752 147.685C80.4472 147.947 80.2833 148.209 80.3817 148.308C80.4472 148.406 79.9554 149.127 79.234 149.882C78.5126 150.669 77.9223 151.456 77.9223 151.652C77.9223 152.177 77.3321 152.046 76.6107 151.324C76.0861 150.8 76.0205 150.505 76.2828 149.816C76.7747 148.537 78.7749 146.34 81.2014 144.405C82.5131 143.356 83.0377 142.799 82.5131 142.963C81.3982 143.323 79.07 144.93 77.1354 146.734C75.5286 148.209 75.5286 148.209 75.7581 147.225C76.1188 145.815 77.8568 143.52 79.8242 141.913C81.7589 140.339 84.1198 139.52 86.7431 139.52C87.9564 139.52 89.2352 139.224 90.678 138.634C92.6455 137.814 93.2357 137.716 96.9411 137.716C101.597 137.716 103.565 138.274 106.319 140.372C108.188 141.815 107.729 140.733 105.827 139.224C103.663 137.519 101.007 136.47 98.3511 136.306C95.5311 136.142 95.5639 135.847 98.679 134.273C99.7611 133.748 100.417 133.289 100.155 133.289C99.302 133.289 96.8427 134.273 95.5639 135.126C94.8753 135.552 94.3178 135.847 94.3178 135.749C94.3178 135.65 95.1704 133.781 96.2197 131.551C98.1871 127.387 99.466 125.649 101.696 124.01C102.712 123.255 102.811 123.091 102.188 123.288C100.712 123.714 98.2855 125.452 97.2362 126.83C96.4492 127.912 96.2853 128.01 96.4492 127.387C96.5804 126.928 97.105 125.78 97.6297 124.829C98.1544 123.911 98.5478 123.124 98.4823 123.124C98.4167 123.124 97.6625 124.01 96.8099 125.092C95.2687 127.059 93.6292 130.24 92.4815 133.519C92.1536 134.47 91.7273 135.257 91.5962 135.257C91.4322 135.257 91.3666 133.355 91.3994 131.06L91.5306 126.83L90.9403 128.338C90.6124 129.158 90.1862 130.109 89.9894 130.469C89.7927 130.863 89.7927 130.994 90.0222 130.83C90.2517 130.699 90.3829 131.191 90.3829 132.273C90.3829 133.158 90.5469 134.306 90.7108 134.798C91.0387 135.585 90.9403 135.781 89.9894 136.601C89.3992 137.093 88.5466 137.683 88.1203 137.946C87.3005 138.405 87.5301 138.569 84.3822 134.929L83.1033 133.453L84.251 135.093C86.6775 138.634 86.3496 138.405 82.3491 133.617C80.7752 131.748 79.6603 130.141 79.857 130.076C80.0538 130.01 81.0375 130.338 82.054 130.797C84.2838 131.814 84.6773 131.715 82.9721 130.535C82.1196 129.977 81.89 129.65 82.218 129.551C82.4803 129.453 83.628 129.059 84.8084 128.699C87.6613 127.748 89.9238 126.403 91.5634 124.698C95.0392 121.026 96.7443 117.812 96.7443 114.894C96.7771 113.451 96.5148 112.598 95.6622 110.86C94.2194 108.073 93.8259 107.811 94.7441 110.237C95.7278 112.992 95.7278 116.894 94.7113 118.796C93.7604 120.632 92.252 122.501 92.0224 122.173C91.9241 122.042 91.2355 122.403 90.4485 123.026C89.6615 123.616 89.1368 124.108 89.2352 124.108C89.3664 124.108 89.268 124.337 89.0385 124.633C88.481 125.321 86.448 126.206 82.8738 127.387C79.7586 128.403 79.6603 128.403 74.676 126.436C72.7086 125.682 72.3807 125.452 73.0365 125.321C73.4628 125.256 72.6102 125.157 71.1346 125.124C68.872 125.092 68.2818 124.96 67.7572 124.436C67.3965 124.075 67.1013 123.649 67.1013 123.452C67.1013 123.288 68.8065 123.091 71.1346 123.026L75.1351 122.927L70.8723 122.862C67.1669 122.796 65.265 122.501 65.7897 122.042C66.2488 121.649 69.3311 120.632 72.5118 119.812C74.5121 119.32 75.8565 118.894 75.5286 118.861C74.7416 118.861 70.4132 119.976 67.9539 120.829C65.6585 121.616 65.4618 121.616 64.642 121.026C64.0518 120.599 64.1174 120.534 65.6913 119.714C68.2818 118.402 71.6921 117.615 77.1026 117.058C83.0377 116.468 85.1363 115.615 86.3496 113.451C86.7759 112.729 87.1038 111.844 87.071 111.483C87.071 110.992 86.9071 111.155 86.448 112.008C85.5954 113.615 83.464 115.451 81.9556 115.91C81.267 116.107 78.8733 116.468 76.6107 116.73C71.4625 117.32 68.5113 118.009 65.7897 119.255C64.2157 119.943 63.3632 120.173 62.609 120.009C61.3629 119.779 61.3301 119.648 62.0843 118.73C62.4122 118.337 62.1827 118.468 61.5925 119.025L60.5104 120.009L61.822 120.239C63.3632 120.501 65.8225 122.042 65.1011 122.272C64.8388 122.37 64.2813 122.501 63.8222 122.567C63.3632 122.632 63.6911 122.731 64.5436 122.763C66.052 122.796 66.839 123.223 66.052 123.55C65.7569 123.682 65.8225 123.747 66.1504 123.747C66.9374 123.78 67.9211 124.96 67.3637 125.19C67.1341 125.288 67.2653 125.387 67.6916 125.387C68.249 125.42 68.413 125.616 68.413 126.239C68.413 127.19 68.413 127.19 66.8718 126.567C66.216 126.305 65.6257 126.108 65.5602 126.174C65.4946 126.239 66.4455 126.731 67.6588 127.223C68.9048 127.715 70.3804 128.436 70.9707 128.797C71.5609 129.125 72.1183 129.354 72.2167 129.289C72.2823 129.19 71.5609 128.699 70.5444 128.174C69.3967 127.584 68.8065 127.059 68.9048 126.797C69.0032 126.534 69.0688 126.206 69.0688 126.01C69.0688 125.78 69.6918 125.715 70.8723 125.846C72.7414 126.043 75.5614 127.157 77.3321 128.403C78.5782 129.289 78.3158 129.486 74.8072 130.01C73.3644 130.24 72.0528 130.568 71.856 130.699C71.3314 131.224 70.8395 131.027 68.2818 129.354C65.429 127.485 63.3632 126.403 62.7729 126.403C62.5434 126.436 62.9369 126.731 63.6583 127.092C66.0848 128.338 70.0853 131.092 69.823 131.322C69.6918 131.453 69.036 131.748 68.413 131.945C67.3637 132.306 67.1997 132.273 66.6095 131.551C66.2488 131.125 65.4618 130.207 64.8716 129.486L63.7895 128.207L64.9043 129.846C66.5439 132.273 66.5767 132.306 65.8225 132.306C65.4618 132.306 64.8388 131.978 64.4125 131.551C63.9862 131.158 63.7567 130.961 63.8878 131.125C64.5109 131.912 64.0518 132.043 61.6252 131.847C57.428 131.453 55.3294 130.109 56.2475 128.403C56.641 127.715 56.7394 124.796 56.4115 123.977C56.2803 123.682 55.8868 123.255 55.4933 123.059C54.8703 122.731 54.8375 122.763 55.231 123.223C55.4606 123.518 55.6245 124.272 55.5589 124.993C55.4933 126.043 55.3622 126.206 54.8047 126.141C52.0175 125.682 52.0175 125.682 52.0175 126.206C52.0175 127.059 51.4601 126.797 50.7387 125.616C49.6566 123.878 49.9517 122.206 51.8863 119.025C52.5422 117.943 53.4931 115.943 54.0505 114.599C55.0999 111.975 56.1492 109.909 58.838 105.286C59.7562 103.712 60.3136 102.564 60.0513 102.794C59.789 103.023 59.1003 104.007 58.5429 104.958C57.9855 105.942 57.428 106.729 57.2968 106.729C57.1657 106.729 56.641 107.516 56.1492 108.434L55.231 110.172L55.4278 108.696C55.7885 106.007 57.6903 102.761 60.6415 99.7442C65.9209 94.3009 73.3644 90.6283 80.644 89.8414C82.9721 89.6118 83.1689 89.743 82.4803 91.0874C82.2835 91.4809 82.9394 90.989 83.9231 90.0053C85.4643 88.4313 85.825 87.8083 86.7431 84.9883C87.9564 81.3813 89.3664 79.0531 91.0059 77.971C92.3504 77.0529 92.875 77.0201 93.2685 77.7743ZM123.043 98.99C123.108 99.9082 123.043 99.8426 122.354 98.367C121.37 96.3012 121.338 95.9077 122.256 97.0554C122.649 97.5472 123.01 98.4326 123.043 98.99ZM175.934 97.7768C175.934 98.8589 175.902 98.9244 175.639 98.2686C175.377 97.6128 175.508 96.5635 175.836 96.5635C175.902 96.5635 175.967 97.1209 175.934 97.7768ZM129.535 103.417C131.175 105.122 131.667 105.778 130.88 105.155C129.371 104.007 126.814 101.384 125.994 100.17C125.207 98.99 125.338 98.5965 126.191 99.7114C126.551 100.236 128.092 101.908 129.535 103.417ZM129.962 100.564C129.863 100.826 129.765 100.728 129.765 100.367C129.732 100.007 129.83 99.8098 129.929 99.941C130.027 100.039 130.06 100.334 129.962 100.564ZM173.901 100.498C173.934 100.859 173.836 101.089 173.639 100.99C173.278 100.761 173.246 99.8426 173.606 99.8426C173.737 99.8426 173.869 100.138 173.901 100.498ZM176.197 102.04C176.098 102.367 176.033 102.105 176.033 101.482C176.033 100.859 176.098 100.597 176.197 100.892C176.262 101.22 176.262 101.744 176.197 102.04ZM143.668 111.155C144.127 112.926 145.111 115.812 145.8 117.55C146.521 119.255 146.882 120.37 146.619 120.042C145.8 118.96 144.127 114.599 143.275 111.352C142.783 109.352 142.455 106.958 142.357 104.761L142.225 101.318L142.52 104.597C142.684 106.401 143.209 109.352 143.668 111.155ZM175.639 107.221C175.639 107.483 175.508 107.712 175.311 107.712C175.147 107.712 174.984 107.483 174.984 107.221C174.984 106.958 175.147 106.729 175.311 106.729C175.508 106.729 175.639 106.958 175.639 107.221ZM54.6408 128.207C55.4606 129.092 55.3294 129.748 54.4768 129.027C53.7882 128.469 53.2308 127.387 53.5915 127.387C53.7554 127.387 54.2145 127.748 54.6408 128.207ZM79.7258 136.273C80.9719 138.274 81.1359 139.323 79.9554 137.651C79.2668 136.667 78.2503 134.765 78.2503 134.437C78.2503 133.978 78.6437 134.437 79.7258 136.273ZM151.604 139.585C151.505 139.848 151.407 139.749 151.407 139.388C151.374 139.028 151.472 138.831 151.571 138.962C151.669 139.061 151.702 139.356 151.604 139.585ZM76.3156 141.618C76.1844 141.815 75.9549 142.569 75.8893 143.323C75.7909 144.045 75.2991 145.258 74.8072 146.012C74.053 147.127 73.9546 147.553 74.1514 148.668C74.3481 149.783 74.2826 149.98 73.8563 149.816C73.1349 149.554 72.2495 148.078 72.4463 147.422C72.5446 147.127 72.7742 146.406 72.9381 145.815C73.1349 145.258 73.2332 144.766 73.1677 144.766C72.8397 144.766 71.3642 147.783 71.3642 148.472C71.3642 148.898 71.8232 149.882 72.3479 150.603C72.9053 151.357 73.2004 151.98 73.0365 151.98C71.5281 151.98 69.3967 149.652 69.3967 148.012C69.3967 147.553 69.7902 146.439 70.2493 145.553L71.1018 143.946L70.2493 144.733C69.2 145.717 68.6097 147.455 68.8393 148.898C69.1016 150.472 68.5113 150.308 68.0851 148.668C67.5932 146.832 68.1179 145.389 69.823 143.914C70.5772 143.258 72.02 142.405 73.0037 141.979C74.9056 141.159 76.8402 140.962 76.3156 141.618ZM152.522 152.964C152.391 154.079 152.227 154.899 152.128 154.8C152.03 154.702 152.063 153.751 152.194 152.636C152.325 151.521 152.489 150.701 152.587 150.8C152.686 150.898 152.653 151.849 152.522 152.964ZM90.1534 163.359C90.842 165.359 91.3666 166.31 93.2357 169.031L93.7932 169.851L93.039 169.195C91.7273 168.113 89.7599 164.769 89.0713 162.539C88.3827 160.342 88.2515 158.112 88.645 156.21C88.8417 155.325 88.9401 155.686 89.1368 158.112C89.268 159.883 89.6943 162.08 90.1534 163.359ZM93.8259 164.178C94.1539 165.129 94.908 166.867 95.5311 168.048L96.6788 170.179L95.6622 169.031C93.3341 166.31 91.9897 162.604 92.0552 158.866V156.735L92.6783 159.588C93.0062 161.162 93.5308 163.227 93.8259 164.178ZM156.293 166.31C156.293 166.834 154.456 168.376 153.866 168.376C153.341 168.376 153.276 168.441 153.637 168.671C153.965 168.868 153.637 169.294 152.325 170.278C149.767 172.179 149.21 172.409 149.177 171.655C149.144 171.261 149.669 170.671 150.718 170.015C153.407 168.277 153.669 167.294 151.079 168.572C149.439 169.392 149.538 168.9 151.276 167.49C152.62 166.441 153.145 166.244 154.588 166.179C155.506 166.146 156.293 166.211 156.293 166.31ZM116.845 170.409C116.747 170.671 116.648 170.573 116.648 170.212C116.616 169.851 116.714 169.654 116.812 169.786C116.911 169.884 116.944 170.179 116.845 170.409ZM90.6452 174.147C92.1208 174.278 93.4325 174.508 93.5308 174.639C93.6292 174.803 93.4652 174.934 93.1701 174.934C92.5799 174.934 90.7436 176.639 90.1534 177.655C89.9238 178.115 89.0713 178.377 86.4152 178.705C84.5461 178.967 82.9066 179.197 82.7754 179.197C82.3163 179.197 82.5131 177.885 83.0377 177.032C83.7919 175.885 85.1691 175.262 87.5301 174.967L89.5631 174.704L87.3333 174.639C84.7101 174.606 83.6935 175.032 82.0868 176.934C80.4472 178.836 79.3979 178.049 80.9391 176.082C82.054 174.671 84.6773 173.557 86.448 173.753C87.2678 173.852 89.1368 174.016 90.6452 174.147ZM80.7424 174.967C80.1193 175.524 79.2668 176.475 78.9061 177.098C77.5944 179.197 77.1354 178.213 78.2503 175.754C78.9061 174.311 79.2996 174.048 80.9719 173.983L81.89 173.95L80.7424 174.967ZM78.2503 175.065C78.2503 175.131 77.9879 175.393 77.6928 175.622C77.1682 176.049 77.1354 176.016 77.5616 175.491C77.9879 174.967 78.2503 174.803 78.2503 175.065ZM95.6294 175.983C95.1704 176.18 94.4818 176.442 94.0883 176.606C93.662 176.77 92.7111 177.754 91.9569 178.836C91.1699 179.918 90.4157 180.803 90.2845 180.803C90.1206 180.836 90.5141 179.918 91.1043 178.836C92.2848 176.541 93.5636 175.59 95.3015 175.622C96.4164 175.622 96.4164 175.655 95.6294 175.983ZM101.335 176.311C103.237 177.983 102.548 180.377 100.056 180.803C97.3674 181.262 96.482 180.541 98.1216 179.229C98.8102 178.705 98.8757 178.541 98.4495 178.541C98.1216 178.541 97.269 179.131 96.5476 179.852C95.7934 180.574 95.1048 181.164 94.9408 181.164C93.9899 181.164 94.8425 177.951 96.0557 176.934C96.7443 176.377 98.843 175.622 99.7939 175.59C100.187 175.59 100.876 175.918 101.335 176.311ZM76.8402 177.229C76.6107 177.787 76.414 178.082 76.3484 177.918C76.25 177.59 76.8402 176.245 77.0698 176.245C77.1682 176.245 77.037 176.705 76.8402 177.229ZM94.7113 177.459C94.3506 177.983 93.8259 178.967 93.5308 179.656C92.9406 181.033 92.4815 181.066 92.8094 179.721C93.0062 178.967 94.8097 176.573 95.2032 176.573C95.2687 176.573 95.072 176.967 94.7113 177.459Z" fill="#57D7CA"/>
<path d="M91.7929 82.2994C91.301 83.5455 89.8254 89.7102 89.5631 91.6448C89.3336 93.2188 89.8582 93.2188 90.1533 91.6448C90.2189 91.1858 90.3173 91.7104 90.3829 92.7925C90.4157 93.8746 90.6452 95.4814 90.8419 96.3995L91.2682 98.0391L91.5306 96.3011C91.7273 95.0223 92.1536 94.0714 93.0389 92.8581C93.8259 91.8416 94.3178 90.7923 94.3506 90.1692C94.4162 87.9067 94.2194 86.8246 93.4324 85.4146C93.0062 84.5948 92.5143 83.3487 92.3831 82.6273L92.1536 81.3157L91.7929 82.2994Z" fill="#57D7CA"/>
<path d="M93.0062 82.5946C93.0062 82.6601 93.5308 83.8078 94.1538 85.1195C95.1048 87.1197 95.3015 87.9067 95.3015 89.7102C95.3015 91.7104 95.2032 92.0384 93.8259 94.137C92.6127 95.9733 92.3503 96.6291 92.3503 97.9079C92.3503 98.8917 92.5471 99.6458 92.875 99.9738C93.1373 100.269 93.3997 100.498 93.4324 100.498C93.4652 100.498 93.498 99.4163 93.498 98.1047C93.498 95.9405 93.5964 95.5798 94.7769 93.6779C95.9246 91.8744 96.0885 91.3497 96.0885 89.579C96.1213 87.8411 95.9246 87.1525 94.8752 84.9883C94.1866 83.6111 93.4652 82.4634 93.3013 82.4634C93.1373 82.4634 93.0062 82.529 93.0062 82.5946Z" fill="#57D7CA"/>
<path d="M88.5794 84.9227C88.4811 85.9064 88.0876 87.7099 87.7269 88.956C87.0383 91.3169 86.9071 93.8091 87.4317 94.596C87.6613 94.9567 87.7597 94.5633 87.7597 93.2516C87.7597 91.3825 88.8745 87.4148 90.0878 85.0539C90.6453 83.9062 90.6453 83.8406 90.1206 83.6439C89.8255 83.5455 89.3992 83.3815 89.2025 83.2832C88.9401 83.152 88.7434 83.7422 88.5794 84.9227Z" fill="#57D7CA"/>
<path d="M70.3805 94.4649C66.2489 96.7602 61.9532 100.695 60.3137 103.712C59.6251 104.958 59.6251 105.056 60.1497 105.45C60.4449 105.679 60.6088 105.778 60.4776 105.614C60.3465 105.483 60.3793 105.187 60.5432 104.958C60.7072 104.761 61.7565 103.482 62.8386 102.072C65.134 99.154 67.5277 96.9242 70.2493 95.0879C73.5612 92.8909 73.594 92.6941 70.3805 94.4649Z" fill="#57D7CA"/>
<path d="M82.513 97.2193C82.513 98.99 82.4146 99.3507 81.562 100.17C80.6767 101.089 80.4799 101.121 77.8895 101.089C75.5285 101.056 74.9055 101.187 73.4299 101.908C70.6754 103.318 68.085 106.434 68.085 108.368C68.085 108.631 68.4129 108.204 68.7736 107.384C69.5606 105.614 72.1182 103.122 74.1513 102.171C75.8892 101.351 77.4632 101.318 79.7257 101.974C81.2341 102.433 81.3981 102.433 82.1851 101.876C83.4311 100.957 83.9886 98.8588 83.4967 97.0225C82.8737 94.8583 82.513 94.9567 82.513 97.2193Z" fill="#57D7CA"/>
<path d="M69.8557 100.433C68.9047 101.089 66.6422 102.859 64.7731 104.368C62.904 105.876 60.871 107.45 60.2807 107.909C59.2642 108.696 59.133 109.582 60.084 109.221C60.3791 109.122 60.4447 109.221 60.3135 109.614C60.2151 109.909 60.6086 109.582 61.2317 108.86C62.904 106.86 67.5275 102.597 70.7082 100.105C72.4134 98.7933 71.7903 99.0228 69.8557 100.433Z" fill="#57D7CA"/>
<path d="M99.6299 100.99C99.5971 101.876 99.4659 102.991 99.4004 103.45L99.2036 104.269L99.5643 103.45C99.7611 103.023 99.8594 101.908 99.7939 100.99L99.6955 99.3508L99.6299 100.99Z" fill="#57D7CA"/>
<path d="M82.9065 104.171C82.2179 104.86 81.8572 104.925 78.5781 104.925C75.0695 104.925 75.0039 104.925 73.9874 105.909C72.7413 107.089 72.0199 108.368 72.0199 109.45C72.0199 110.827 71.1018 110.795 70.6755 109.417C70.4132 108.467 70.4459 107.909 70.8394 106.729C71.2657 105.45 71.2657 105.351 70.8394 105.909C70.0852 106.958 68.3473 112.664 68.5769 113.516C68.7408 114.205 68.8392 114.238 69.495 113.877C69.9541 113.615 71.6592 113.451 74.3481 113.451C78.3158 113.451 78.5125 113.418 79.6274 112.565C81.1358 111.418 81.6604 109.844 81.3653 107.516C81.103 105.286 81.726 105.089 82.0539 107.286L82.3163 108.86L82.5458 107.384C82.6442 106.565 82.9721 105.351 83.3 104.663C83.923 103.253 83.8902 103.187 82.9065 104.171ZM78.6109 106.401C79.2995 106.794 79.4307 107.548 78.8732 107.876C78.283 108.27 76.9386 107.745 76.9386 107.089C76.9386 106.04 77.496 105.81 78.6109 106.401ZM80.1193 107.942C80.0209 108.27 79.9553 108.007 79.9553 107.384C79.9553 106.761 80.0209 106.499 80.1193 106.794C80.1849 107.122 80.1849 107.647 80.1193 107.942ZM76.9058 111.647C77.4304 111.647 78.2502 111.319 78.7421 110.926L79.6602 110.237L79.2667 110.926C78.7748 111.844 77.6272 112.106 75.6925 111.811C73.725 111.516 73.6267 111.516 72.9053 111.811C72.5118 111.975 72.6101 111.746 73.2332 111.123L74.1513 110.172L75.0695 110.893C75.5941 111.319 76.4139 111.647 76.9058 111.647Z" fill="#57D7CA"/>
<path d="M98.6134 105.319C98.2855 106.171 98.2855 106.204 98.7446 105.614C99.0069 105.253 99.2365 104.86 99.2365 104.696C99.2365 104.204 99.0069 104.433 98.6134 105.319Z" fill="#57D7CA"/>
<path d="M83.2346 107.417C83.169 108.893 82.5787 110.631 81.8901 111.483C81.3655 112.139 81.3655 112.139 82.0869 111.549C83.1034 110.696 83.5625 109.319 83.3985 107.68C83.3001 106.368 83.2674 106.335 83.2346 107.417Z" fill="#57D7CA"/>
<path d="M66.1177 108.434C65.757 109.221 65.4946 110.139 65.4946 110.5C65.4946 110.86 65.6914 110.565 65.9209 109.844C66.1504 109.122 66.5111 108.204 66.7407 107.778C66.9374 107.384 67.0358 107.057 66.9374 107.057C66.8391 107.057 66.4456 107.68 66.1177 108.434Z" fill="#57D7CA"/>
<path d="M126.846 116.697C130.453 118.73 132.159 120.075 135.175 123.19C138.356 126.502 139.34 127.912 142.455 133.617C145.341 138.962 145.111 136.798 142.16 130.928C138.881 124.37 134.618 120.173 127.863 116.763C124.092 114.861 123.567 114.828 126.846 116.697Z" fill="#57D7CA"/>
<path d="M114.222 118.468C115.862 119.911 119.731 121.977 124.879 124.239C131.929 127.321 135.602 129.354 138.75 131.814C140.553 133.257 141.275 133.552 139.897 132.306C136.913 129.682 131.995 126.83 125.797 124.173C120.911 122.075 117.567 120.403 115.14 118.796C113.665 117.845 113.435 117.746 114.222 118.468Z" fill="#57D7CA"/>
<path d="M79.4635 118.435C80.0538 118.501 81.1031 118.501 81.7589 118.435C82.4475 118.369 81.9884 118.304 80.7096 118.304C79.4635 118.304 78.9061 118.369 79.4635 118.435Z" fill="#57D7CA"/>
<path d="M85.0708 118.435C85.6282 118.501 86.612 118.501 87.2022 118.435C87.7597 118.369 87.3006 118.304 86.1201 118.304C84.9396 118.304 84.4806 118.369 85.0708 118.435Z" fill="#57D7CA"/>
<path d="M76.7091 118.763C77.0043 118.829 77.5289 118.829 77.8568 118.763C78.1519 118.665 77.8896 118.599 77.2666 118.599C76.6436 118.599 76.3812 118.665 76.7091 118.763Z" fill="#57D7CA"/>
<path d="M62.0186 121.517C61.494 121.845 61.1661 122.14 61.2972 122.14C61.6579 122.14 63.4942 121.189 63.4942 120.993C63.4942 120.698 63.0024 120.862 62.0186 121.517Z" fill="#57D7CA"/>
<path d="M58.7397 121.517C58.6086 121.714 58.5758 121.911 58.6741 122.009C58.7397 122.108 58.9037 121.944 59.0021 121.649C59.2316 121.091 59.0348 120.993 58.7397 121.517Z" fill="#57D7CA"/>
<path d="M52.5423 122.698C52.444 122.927 52.5751 123.124 52.8047 123.124C53.0342 123.124 53.3949 122.927 53.5916 122.698C53.854 122.37 53.7884 122.272 53.3293 122.272C52.9686 122.272 52.6079 122.468 52.5423 122.698Z" fill="#57D7CA"/>
<path d="M94.3507 123.977C93.6948 124.829 92.8095 127.321 93.1046 127.584C93.1702 127.682 93.4325 127.059 93.662 126.239C93.8916 125.42 94.3834 124.37 94.7114 123.944C95.0721 123.485 95.2688 123.124 95.1704 123.124C95.1048 123.124 94.7114 123.518 94.3507 123.977Z" fill="#57D7CA"/>
<path d="M65.3962 124.993C65.593 125.059 65.9865 125.059 66.216 124.993C66.4127 124.895 66.2488 124.829 65.7897 124.829C65.3306 124.829 65.1667 124.895 65.3962 124.993Z" fill="#57D7CA"/>
<path d="M74.9058 125.649C75.2992 125.715 75.8895 125.715 76.2174 125.649C76.5125 125.551 76.1846 125.485 75.4632 125.518C74.7418 125.518 74.4795 125.583 74.9058 125.649Z" fill="#57D7CA"/>
<path d="M61.5269 126.075C61.5269 126.239 61.6908 126.403 61.8876 126.403C62.0515 126.403 62.1171 126.239 62.0187 126.075C61.9203 125.879 61.7564 125.747 61.658 125.747C61.5924 125.747 61.5269 125.879 61.5269 126.075Z" fill="#57D7CA"/>
<path d="M61.8547 129.354C61.8547 129.518 62.0187 129.682 62.2154 129.682C62.3794 129.682 62.445 129.518 62.3466 129.354C62.2482 129.158 62.0843 129.027 61.9859 129.027C61.9203 129.027 61.8547 129.158 61.8547 129.354Z" fill="#57D7CA"/>
<path d="M70.6428 129.912C70.8724 130.01 71.1675 129.977 71.2659 129.879C71.397 129.781 71.2003 129.682 70.8396 129.715C70.4789 129.715 70.3805 129.813 70.6428 129.912Z" fill="#57D7CA"/>
<path d="M112.189 130.896C112.746 132.371 113.665 136.47 113.665 137.618C113.665 138.437 113.796 138.831 113.992 138.7C114.222 138.569 114.255 137.913 114.124 136.962C113.894 135.191 112.418 130.338 112.123 130.338C112.025 130.338 112.058 130.6 112.189 130.896Z" fill="#57D7CA"/>
<path d="M82.1851 132.437C82.1851 132.502 82.4474 132.765 82.7753 132.994C83.2672 133.42 83.3 133.388 82.8737 132.863C82.4474 132.338 82.1851 132.174 82.1851 132.437Z" fill="#57D7CA"/>
<path d="M147.767 132.961C147.767 133.125 147.931 133.289 148.095 133.289C148.292 133.289 148.423 133.125 148.423 132.961C148.423 132.765 148.292 132.633 148.095 132.633C147.931 132.633 147.767 132.765 147.767 132.961Z" fill="#57D7CA"/>
<path d="M137.93 134.831C141.504 137.618 144.75 142.176 145.308 145.258C145.406 145.783 145.209 145.488 144.849 144.569C143.111 139.88 139.438 136.503 135.307 135.781C134.192 135.585 134.192 135.585 135.733 136.404C137.372 137.29 139.864 139.552 140.52 140.766C140.848 141.356 140.52 141.29 138.52 140.208C137.208 139.487 135.602 138.831 134.979 138.7C134.093 138.569 134.29 138.7 135.733 139.323C141.701 141.848 145.177 146.602 146.619 154.21L147.111 156.735L146.98 152.472C146.849 147.455 145.931 144.045 143.799 140.438C142.357 138.044 139.668 135.322 137.897 134.47L136.782 133.912L137.93 134.831Z" fill="#57D7CA"/>
<path d="M107.762 134.667C107.762 134.732 108.123 135.486 108.582 136.372C109.041 137.29 109.402 137.716 109.402 137.355C109.402 136.732 108.254 134.601 107.926 134.601C107.828 134.601 107.762 134.634 107.762 134.667Z" fill="#57D7CA"/>
<path d="M109.598 144.406C109.27 144.897 105.106 146.439 102.843 146.898C101.499 147.16 101.073 147.324 101.696 147.357C103.106 147.39 106.188 146.57 108.057 145.586C109.467 144.897 110.451 144.11 109.926 144.11C109.828 144.11 109.697 144.242 109.598 144.406Z" fill="#57D7CA"/>
<path d="M138.389 149.226C139.373 150.669 140.652 152.8 141.209 153.98C141.799 155.161 142.16 155.653 142.029 155.095C141.602 153.128 139.832 149.98 138.225 148.308L136.585 146.57L138.389 149.226Z" fill="#57D7CA"/>
<path d="M104.122 157.686C104.516 158.145 107.205 159.194 107.893 159.194C108.385 159.161 106.68 158.276 105.073 157.686C103.926 157.292 103.795 157.292 104.122 157.686Z" fill="#57D7CA"/>
<path d="M113.894 157.784C114.025 158.145 113.992 158.243 113.73 158.079C113.468 157.915 113.402 158.014 113.533 158.342C113.632 158.637 113.566 158.866 113.336 158.866C113.14 158.866 113.041 158.997 113.173 159.194C113.271 159.358 113.533 159.424 113.763 159.325C114.255 159.161 114.484 157.227 113.992 157.227C113.828 157.227 113.796 157.456 113.894 157.784Z" fill="#57D7CA"/>
<path d="M112.91 159.883C113.14 160.112 113.402 160.211 113.501 160.112C113.599 160.014 113.435 159.817 113.107 159.719C112.648 159.522 112.615 159.555 112.91 159.883Z" fill="#57D7CA"/>
<path d="M105.532 160.506C105.827 161.326 111.172 170.868 111.795 171.688C112.746 172.999 108.549 164.637 107.106 162.44C105.696 160.276 105.237 159.686 105.532 160.506Z" fill="#57D7CA"/>
<path d="M125.305 166.572C125.731 168.638 126.977 170.573 129.24 172.802C131.142 174.672 135.634 177.918 135.634 177.426C135.634 177.36 134.323 176.245 132.716 174.967C129.076 172.081 127.305 170.081 126.059 167.556C125.436 166.343 125.174 165.949 125.305 166.572Z" fill="#57D7CA"/>
<path d="M143.012 176.311C142.881 177.098 142.619 178.016 142.455 178.377C142.225 178.902 142.291 178.902 142.816 178.246C143.275 177.754 143.504 177.032 143.504 176.213C143.504 174.54 143.307 174.573 143.012 176.311Z" fill="#57D7CA"/>
<path d="M140.684 75.1182C140.094 75.5773 140.094 75.6101 140.816 75.2494C141.209 75.0526 141.537 74.8231 141.537 74.7575C141.537 74.4952 141.373 74.5607 140.684 75.1182Z" fill="#57D7CA"/>
<path d="M157.867 77.4465C158.096 77.5448 158.391 77.512 158.49 77.4137C158.621 77.3153 158.424 77.2169 158.063 77.2497C157.703 77.2497 157.604 77.3481 157.867 77.4465Z" fill="#57D7CA"/>
<path d="M155.899 79.4139C156.129 79.5122 156.424 79.4795 156.522 79.3811C156.653 79.2827 156.457 79.1843 156.096 79.2171C155.735 79.2171 155.637 79.3155 155.899 79.4139Z" fill="#57D7CA"/>
<path d="M159.506 80.7255C159.703 80.7911 160.096 80.7911 160.326 80.7255C160.523 80.6271 160.359 80.5615 159.9 80.5615C159.441 80.5615 159.277 80.6271 159.506 80.7255Z" fill="#57D7CA"/>
<path d="M157.867 81.7091C158.063 81.7747 158.457 81.7747 158.686 81.7091C158.883 81.6107 158.719 81.5452 158.26 81.5452C157.801 81.5452 157.637 81.6107 157.867 81.7091Z" fill="#57D7CA"/>
<path d="M156.391 82.0371C155.538 82.365 155.997 82.7913 157.211 82.7913C158.358 82.7585 158.391 82.7257 157.801 82.2994C157.112 81.7747 157.014 81.7747 156.391 82.0371Z" fill="#57D7CA"/>
<path d="M161.867 84.0701C161.867 84.2669 161.998 84.4964 162.195 84.5948C162.392 84.6932 162.425 84.562 162.326 84.2997C162.097 83.7094 161.867 83.6111 161.867 84.0701Z" fill="#57D7CA"/>
<path d="M165.146 84.562C165.146 84.6275 165.409 84.8899 165.736 85.1194C166.228 85.5457 166.261 85.5129 165.835 84.9882C165.409 84.4636 165.146 84.2996 165.146 84.562Z" fill="#57D7CA"/>
<path d="M165.638 86.3983C165.966 86.759 166.294 87.0541 166.392 87.0541C166.491 87.0541 166.294 86.759 165.966 86.3983C165.638 86.0376 165.31 85.7424 165.212 85.7424C165.114 85.7424 165.31 86.0376 165.638 86.3983Z" fill="#57D7CA"/>
<path d="M141.045 87.7755L139.733 89.1855L141.143 87.8739C142.422 86.6934 142.684 86.3983 142.422 86.3983C142.356 86.3983 141.733 87.0213 141.045 87.7755Z" fill="#57D7CA"/>
<path d="M143.471 87.2837C143.045 87.8083 143.078 87.8411 143.603 87.4148C143.898 87.1853 144.16 86.923 144.16 86.8574C144.16 86.5951 143.898 86.759 143.471 87.2837Z" fill="#57D7CA"/>
<path d="M167.966 87.4149C168.261 87.7428 168.72 88.0379 168.95 88.0379C169.179 88.0379 169.475 88.2019 169.606 88.4314C169.77 88.6937 169.639 88.7265 169.212 88.5626C168.753 88.3986 168.688 88.4314 168.983 88.6937C169.212 88.9561 169.54 88.9888 169.868 88.7921C170.36 88.5298 170.36 88.4314 169.737 87.7428C169.376 87.3165 168.72 86.923 168.229 86.8574C167.409 86.7919 167.409 86.7919 167.966 87.4149Z" fill="#57D7CA"/>
<path d="M167.278 88.0379C167.606 88.3986 167.933 88.6937 168.032 88.6937C168.13 88.6937 167.933 88.3986 167.606 88.0379C167.278 87.6772 166.95 87.3821 166.851 87.3821C166.753 87.3821 166.95 87.6772 167.278 88.0379Z" fill="#57D7CA"/>
<path d="M140.848 89.9068C140.422 90.4315 140.455 90.4643 140.979 90.038C141.504 89.6117 141.668 89.3494 141.406 89.3494C141.34 89.3494 141.078 89.6117 140.848 89.9068Z" fill="#57D7CA"/>
<path d="M172.032 93.8419C172.196 93.9075 172.295 94.137 172.163 94.301C172.065 94.4649 172.163 94.5961 172.36 94.5961C172.852 94.5961 172.59 93.8419 172.098 93.7435C171.868 93.7107 171.836 93.7435 172.032 93.8419Z" fill="#57D7CA"/>
<path d="M137.799 95.7437C137.7 96.0061 137.766 96.2356 137.93 96.2356C138.127 96.2356 138.258 96.0061 138.258 95.7437C138.258 95.4814 138.192 95.2519 138.127 95.2519C138.061 95.2519 137.93 95.4814 137.799 95.7437Z" fill="#57D7CA"/>
<path d="M137.602 97.0225C137.602 97.2521 137.405 97.6455 137.143 97.8423C136.782 98.1702 136.651 98.1046 136.52 97.6455C136.421 97.3176 136.356 97.8751 136.323 98.8588C136.29 101.121 136.979 103.909 138.258 106.532C138.815 107.614 139.176 108.237 139.045 107.876C137.897 104.105 137.536 101.81 137.7 99.2851C137.766 97.7767 137.798 96.5634 137.733 96.5634C137.667 96.5634 137.602 96.7602 137.602 97.0225Z" fill="#57D7CA"/>
<path d="M55.3294 98.7277C55.3294 99.0884 55.4278 99.1868 55.5262 98.9244C55.6245 98.6949 55.5918 98.3998 55.4934 98.3014C55.395 98.1702 55.2966 98.367 55.3294 98.7277Z" fill="#57D7CA"/>
<path d="M155.998 98.8917C152.26 100.794 151.013 105.975 153.178 110.828C153.604 111.844 154.981 114.303 156.194 116.336C158.064 119.484 158.523 120.534 159.277 123.616C160.326 127.846 160.523 127.289 159.572 122.829C159.211 121.124 158.916 119.156 158.916 118.402C158.916 117.517 158.818 117.222 158.621 117.517C158.457 117.779 158.26 117.123 158.129 115.713C157.998 114.467 157.834 112.697 157.736 111.811C157.473 109.68 157.965 110.139 158.293 112.402C158.654 114.697 158.687 114.795 159.67 116.992C160.687 119.189 161.867 122.567 161.867 123.288C161.867 124.174 162.458 123.813 162.917 122.567L163.408 121.386L163.835 125.026C164.261 128.731 163.999 133.06 163.146 136.372C162.884 137.29 162.917 137.716 163.212 138.011C163.507 138.274 163.54 138.274 163.376 137.978C163.277 137.782 163.441 137.388 163.769 137.159C164.097 136.929 164.786 136.077 165.278 135.257L166.196 133.781L165.966 135.749C165.868 136.831 165.54 138.602 165.278 139.684C164.655 142.143 162.851 146.111 162.49 145.881C162.326 145.783 162.195 145.914 162.195 146.143C162.195 146.635 158.982 151.456 157.768 152.767C157.342 153.226 156.949 153.718 156.949 153.784C156.949 153.882 156.949 154.046 156.949 154.177C156.949 154.341 156.817 154.243 156.686 154.013C156.49 153.718 156.293 153.817 156.03 154.44C155.768 155.03 155.768 155.259 155.998 155.259C156.26 155.259 156.227 155.423 155.965 155.751C155.735 156.014 155.637 156.243 155.703 156.243C155.932 156.243 160.326 150.996 161.998 148.701C164.064 145.848 165.31 143.159 166.13 139.815C166.95 136.405 167.376 130.666 166.851 130.666C166.622 130.666 166.458 130.797 166.458 130.961C166.458 131.355 164.753 134.339 164.622 134.175C164.556 134.109 164.655 132.863 164.851 131.388C165.245 128.436 164.851 123.452 163.933 119.353L163.408 117.058L162.982 119.156C162.753 120.304 162.49 121.288 162.458 121.353C162.195 121.616 159.506 112.861 159.178 110.762C158.326 104.892 161.113 101.318 165.441 102.892L166.884 103.384L165.507 102.007C162.261 98.695 158.687 97.5145 155.998 98.8917Z" fill="#57D7CA"/>
<path d="M151.669 100.072L150.882 100.99L151.8 100.203C152.62 99.4491 152.85 99.1867 152.587 99.1867C152.522 99.1867 152.128 99.5802 151.669 100.072Z" fill="#57D7CA"/>
<path d="M150.161 102.368C148.915 105.319 149.374 110.008 151.243 113.779C151.669 114.664 151.931 115.123 151.833 114.763C151.702 114.402 151.243 113.09 150.784 111.811C149.669 108.598 149.505 105.417 150.292 103.023C151.013 100.892 150.948 100.531 150.161 102.368Z" fill="#57D7CA"/>
<path d="M152.686 116.894C152.882 117.255 153.112 117.55 153.21 117.55C153.276 117.55 153.21 117.255 153.014 116.894C152.817 116.533 152.587 116.238 152.489 116.238C152.423 116.238 152.489 116.533 152.686 116.894Z" fill="#57D7CA"/>
<path d="M154.653 117.91C154.653 118.042 154.883 118.665 155.145 119.32C155.44 119.976 155.637 120.698 155.604 120.927C155.506 121.616 156.03 123.452 156.325 123.452C156.489 123.452 156.621 123.157 156.621 122.796C156.621 122.436 156.457 122.14 156.293 122.14C156.063 122.14 156.063 121.911 156.325 121.452C156.621 120.894 156.588 120.796 156.26 120.993C155.998 121.189 155.899 121.124 156.03 120.763C156.161 120.501 155.899 119.681 155.44 118.992C155.014 118.271 154.653 117.812 154.653 117.91Z" fill="#57D7CA"/>
<path d="M157.014 125.42C157.473 126.83 157.604 127.026 157.604 126.207C157.604 125.846 157.375 125.256 157.112 124.895C156.686 124.337 156.653 124.37 157.014 125.42Z" fill="#57D7CA"/>
<path d="M157.408 136.732C157.408 139.257 157.473 140.241 157.506 138.929C157.572 137.618 157.572 135.552 157.506 134.339C157.441 133.125 157.408 134.208 157.408 136.732Z" fill="#57D7CA"/>
<path d="M66.1177 134.142C66.1177 134.339 67.3309 135.782 68.8393 137.29C70.3149 138.831 70.7084 139.159 69.7247 138.077C68.7082 136.962 67.4949 135.552 67.003 134.929C66.5112 134.306 66.1177 133.945 66.1177 134.142Z" fill="#57D7CA"/>
<path d="M60.6086 138.536C60.6086 138.995 60.6742 139.159 60.7726 138.929C60.8382 138.733 60.8382 138.339 60.7726 138.11C60.6742 137.913 60.6086 138.077 60.6086 138.536Z" fill="#57D7CA"/>
<path d="M59.0019 139.356C59.0019 140.077 59.0675 140.339 59.1331 139.913C59.1987 139.52 59.1987 138.929 59.1331 138.601C59.0347 138.306 58.9691 138.634 59.0019 139.356Z" fill="#57D7CA"/>
<path d="M60.9039 140.372C60.9039 140.733 61.0023 140.831 61.1006 140.569C61.199 140.339 61.1662 140.044 61.0678 139.946C60.9695 139.815 60.8711 140.011 60.9039 140.372Z" fill="#57D7CA"/>
<path d="M59.2642 141.684C59.2642 142.045 59.3626 142.143 59.461 141.881C59.5594 141.651 59.5266 141.356 59.4282 141.258C59.3298 141.126 59.2315 141.323 59.2642 141.684Z" fill="#57D7CA"/>
<path d="M157.014 142.471C157.014 142.93 157.079 143.094 157.178 142.864C157.243 142.668 157.243 142.274 157.178 142.045C157.079 141.848 157.014 142.012 157.014 142.471Z" fill="#57D7CA"/>
<path d="M156.653 144.307C156.653 144.668 156.752 144.766 156.85 144.504C156.949 144.274 156.916 143.979 156.817 143.881C156.719 143.75 156.621 143.946 156.653 144.307Z" fill="#57D7CA"/>
</svg>
